<?xml version="1.0" encoding="UTF-8" standalone="no"?>
<svg
   xmlns:dc="http://purl.org/dc/elements/1.1/"
   xmlns:cc="http://creativecommons.org/ns#"
   xmlns:rdf="http://www.w3.org/1999/02/22-rdf-syntax-ns#"
   xmlns:svg="http://www.w3.org/2000/svg"
   xmlns="http://www.w3.org/2000/svg"
   xmlns:sodipodi="http://sodipodi.sourceforge.net/DTD/sodipodi-0.dtd"
   xmlns:inkscape="http://www.inkscape.org/namespaces/inkscape"
   width="512"
   height="512"
   viewBox="0 0 512 512"
   id="svg3006"
   version="1.1"
   inkscape:version="0.48.4 r9939"
   sodipodi:docname="power_svg.svg"
   inkscape:export-filename="C:\_code\BrainOffline\BrainOffline.Cleared\Cleared\Cleared.iOS\brain.png"
   inkscape:export-xdpi="90.145119"
   inkscape:export-ydpi="90.145119">
  <metadata
     id="metadata3014">
    <rdf:RDF>
      <cc:Work
         rdf:about="">
        <dc:format>image/svg+xml</dc:format>
        <dc:type
           rdf:resource="http://purl.org/dc/dcmitype/StillImage" />
        <dc:title></dc:title>
      </cc:Work>
    </rdf:RDF>
  </metadata>
  <defs
     id="defs3012" />
  <sodipodi:namedview
     pagecolor="#ffffff"
     bordercolor="#666666"
     borderopacity="1"
     objecttolerance="10"
     gridtolerance="10"
     guidetolerance="10"
     inkscape:pageopacity="0"
     inkscape:pageshadow="2"
     inkscape:window-width="1305"
     inkscape:window-height="665"
     id="namedview3010"
     showgrid="false"
     inkscape:zoom="0.86915209"
     inkscape:cx="195.55414"
     inkscape:cy="235.69753"
     inkscape:window-x="180"
     inkscape:window-y="150"
     inkscape:window-maximized="0"
     inkscape:current-layer="svg3006" />
  <path
     d="m 227.29092,511.89831 56.79731,0 0,-283.98653 -56.79731,0 0,283.98653 z M 89.983432,450.41523 130.16753,410.23113 C 85.581641,373.73886 56.899001,318.50348 56.899001,256.31043 c 0,-109.76079 89.029779,-198.79057 198.790569,-198.79057 109.7608,0 198.79058,89.02978 198.79058,198.79057 0,62.19305 -28.68264,117.42843 -73.26853,153.9207 l 40.1841,40.1841 c 54.8094,-46.85778 89.88173,-116.29249 89.88173,-194.1048 0,-141.1413 -114.44657,-255.58787633 -255.58788,-255.58787633 -141.1413,0 -255.58787508,114.44657633 -255.58787508,255.58787633 0,77.81231 35.07233608,147.24702 89.88173708,194.1048 z"
     id="path3008"
     inkscape:connector-curvature="0"
     style="fill:#ffffff"
     inkscape:export-xdpi="90.145119"
     inkscape:export-ydpi="90.145119" />
</svg>
